<?xml version="1.0" encoding="UTF-8"?>
<svg version="1.1" xmlns="http://www.w3.org/2000/svg" width="512" height="512">
<path d="M0 0 C12.07164887 9.973305 13.3587148 26.88511702 15.6875 41.375 C16.91791016 41.35405273 18.14832031 41.33310547 19.41601562 41.31152344 C24.0080183 41.23878401 28.59997065 41.19307729 33.19238281 41.15527344 C35.17489199 41.13523503 37.15734263 41.10799647 39.13964844 41.07324219 C41.99949641 41.02438046 44.85855881 41.00195327 47.71875 40.984375 C48.59615845 40.96372986 49.47356689 40.94308472 50.37756348 40.92181396 C57.39478494 40.91929087 62.61786216 42.68505604 67.9296875 47.33984375 C68.46851563 47.99082031 69.00734375 48.64179687 69.5625 49.3125 C70.11679687 49.96089844 70.67109375 50.60929687 71.2421875 51.27734375 C74.16848893 55.52443529 74.93735222 59.20120422 74.93359566 64.31576252 C74.9395688 66.11245222 74.9395688 66.11245222 74.94566262 67.94543868 C74.93983693 69.25768784 74.93401125 70.56993701 74.92800903 71.92195129 C74.92888125 73.33282428 74.93063252 74.74369695 74.93318737 76.1545679 C74.9376618 80.03124929 74.9296559 83.90782028 74.91963124 87.78448761 C74.91100043 91.96507951 74.91391664 96.14566512 74.91543579 100.32626343 C74.91648488 107.56934397 74.91020581 114.81238849 74.89896011 122.05545998 C74.88271127 132.52774169 74.87749774 143.00000598 74.87498413 153.47229894 C74.87060606 170.46258091 74.85729392 187.45284369 74.83837891 204.44311523 C74.82002301 220.94832259 74.80586508 237.45352473 74.79736328 253.95874023 C74.79683783 254.97599211 74.79631239 255.99324398 74.79577102 257.04132167 C74.79316096 262.14453677 74.79063354 267.2477519 74.78814721 272.35096705 C74.76741123 314.69232466 74.73218265 357.03366134 74.6875 399.375 C75.58176461 399.16687119 76.47602921 398.95874237 77.39739275 398.74430662 C79.15570146 398.33648967 79.15570146 398.33648967 80.94953156 397.920434 C82.11192116 397.65043018 83.27431077 397.38042637 84.4719243 397.10224062 C87.83266656 396.34216886 91.19028866 395.69723948 94.59179688 395.14819336 C95.77592163 394.95466782 96.96004639 394.76114227 98.18005371 394.56175232 C100.02452087 394.26628258 100.02452087 394.26628258 101.90625 393.96484375 C103.89468778 393.63946624 105.88312452 393.31408224 107.87149811 392.98831272 C112.00959701 392.31161895 116.14882838 391.64189313 120.28820801 390.9730835 C123.72952735 390.41705505 127.17047924 389.85898834 130.61047363 389.29481506 C133.1749979 388.87458368 135.74032447 388.45921221 138.30651855 388.04930115 C139.46542603 387.85892776 140.6243335 387.66855438 141.81835938 387.47241211 C142.83393921 387.30825302 143.84951904 387.14409393 144.89587402 386.97496033 C147.69065723 386.37432147 150.11197829 385.61416645 152.6875 384.375 C155.47502503 378.79994994 153.27711843 370.79590377 152.26315308 364.89138794 C152.03295682 363.50396591 152.03295682 363.50396591 151.79811013 362.08851516 C151.28418242 359.00081369 150.76098733 355.914757 150.23779297 352.82861328 C149.86586903 350.60592276 149.49451561 348.38313671 149.12368774 346.16026306 C148.11214015 340.10690446 147.09249305 334.05493491 146.07137823 328.00318384 C144.98965298 321.5840938 143.91520206 315.16378607 142.83987427 308.74362183 C141.0199954 297.88300781 139.19494623 287.02327077 137.36669922 276.1640625 C135.51875 265.18776804 133.6739869 254.21094606 131.83349609 243.23339844 C131.72180842 242.56727568 131.61012076 241.90115291 131.49504861 241.21484461 C130.93290996 237.86213086 130.37081213 234.50941027 129.80872869 231.15668726 C126.93412074 214.01056881 124.05699863 196.86488924 121.16326904 179.72198486 C120.94783125 178.44565508 120.73239345 177.1693253 120.51042724 175.85431886 C119.65453507 170.78423678 118.79856382 165.71416812 117.94218969 160.64416742 C115.40928501 145.64588636 112.89741945 130.64441129 110.41980553 115.63689613 C109.28222561 108.74799741 108.13434695 101.86083058 106.98282778 94.97424924 C106.09671771 89.67019438 105.2239365 84.36419024 104.36181355 79.05618668 C103.84267738 75.88092634 103.31033353 72.70799456 102.77388144 69.53561831 C102.53287673 68.09391998 102.29742019 66.65128099 102.06806803 65.20768309 C101.75874137 63.26492607 101.42771272 61.32566103 101.0954895 59.38668823 C100.83019534 57.77650975 100.83019534 57.77650975 100.5595417 56.13380241 C99.53998004 52.90830395 98.30153244 51.48283342 95.6875 49.375 C93.47463676 48.83282866 93.47463676 48.83282866 91.1875 48.875 C88.02804916 48.64115907 86.88433291 48.50786222 84.1875 46.6875 C82.30025803 43.77800196 81.75835769 41.84702675 81.6875 38.375 C83.29161848 34.84593933 84.42909362 33.54727092 87.6875 31.375 C94.96743396 30.34864866 101.55664904 31.23919743 107.6875 35.375 C118.94142783 44.69743059 119.28184954 59.05273191 121.5246582 72.64086914 C121.79482014 74.25530197 122.06541009 75.86966323 122.33638859 77.4839592 C123.07149131 81.870479 123.80065589 86.25796755 124.52882147 90.64564347 C125.3097543 95.34441991 126.09644305 100.04223277 126.88247681 104.74015808 C128.40228984 113.82897864 129.9171862 122.91861146 131.43017149 132.00857085 C134.22868313 148.82099763 137.03592928 165.63196896 139.8419432 182.44314492 C140.72576035 187.73837546 141.60930447 193.0336513 142.49228477 198.32902145 C146.89764796 224.7483811 151.33187417 251.162505 155.82388496 277.56727409 C156.620008 282.24763048 157.41436194 286.92828585 158.20823669 291.60902405 C158.46402478 293.11694438 158.71981327 294.62486465 158.97560215 296.13278484 C159.35049627 298.34291646 159.72536877 300.55305174 160.10016239 302.7632004 C161.52757021 311.17970196 162.96124537 319.5950792 164.40528107 328.0087443 C165.39908516 333.80273301 166.38203885 339.59852885 167.36100388 345.39504433 C167.75574685 347.72103738 168.15418511 350.04640713 168.55678177 352.3710537 C174.19709464 384.95999306 174.19709464 384.95999306 167.6875 394.375 C160.531134 402.81753316 150.77128502 404.40315459 140.27864075 406.10868835 C139.38565755 406.25922112 138.49267435 406.40975388 137.57263106 406.56484824 C134.60645663 407.06327089 131.6388445 407.55250944 128.67114258 408.04174805 C126.52817638 408.39990543 124.38530575 408.75863496 122.24252319 409.1178894 C116.41349173 410.09352316 110.58316184 411.06118716 104.75258088 412.02751136 C98.54622899 413.05759018 92.34114033 414.09522437 86.13591003 415.1320343 C75.62571185 416.88713713 65.1147884 418.63782702 54.60327148 420.38500977 C37.5705198 423.21615034 20.53917036 426.05567205 3.50806212 428.89668298 C-0.35026059 429.54030108 -4.20859015 430.1838781 -8.06692505 430.8274231 C-9.33587935 431.03908021 -10.60483364 431.25073733 -11.9122411 431.46880829 C-19.5734086 432.74639497 -27.23490563 434.02198457 -34.89667475 435.29595816 C-59.36748085 439.36493831 -83.83512228 443.44975545 -108.28798568 447.62538898 C-111.68739641 448.20561049 -115.08699649 448.78470821 -118.4866724 449.36337376 C-119.58063562 449.5496055 -120.67459884 449.73583725 -121.80171245 449.92771238 C-123.96862038 450.29659398 -126.13553448 450.66543936 -128.30245501 451.03424698 C-134.48351782 452.08713681 -140.66309645 453.14824797 -146.84164286 454.21579981 C-150.59919535 454.86322403 -154.35797387 455.50329404 -158.11711478 456.14142394 C-159.83266673 456.43429868 -161.54768413 456.73032655 -163.26208138 457.02988648 C-189.26061102 461.56926709 -189.26061102 461.56926709 -198.3125 455.375 C-202.90708761 451.20026264 -207.34887273 446.70740778 -208.3125 440.375 C-208.17899869 436.50346196 -207.84269221 434.17028831 -205.6875 430.9375 C-202.31012021 428.71553961 -200.27726406 428.74898462 -196.3125 429.375 C-192.29739942 432.47757772 -190.46803064 435.8586501 -188.3125 440.375 C-181.34771579 443.8573921 -168.34018905 439.51017854 -160.92480469 438.24194336 C-159.64533463 438.02721878 -158.36586456 437.8124942 -157.04762268 437.59126282 C-153.57867939 437.00898051 -150.11078474 436.42066536 -146.64306164 435.83116603 C-143.00420092 435.2136629 -139.36438428 434.60184567 -135.72467041 433.98939514 C-128.85015618 432.83175562 -121.97650221 431.66908985 -115.10315156 430.50456387 C-107.27055444 429.17777218 -99.43700173 427.8566657 -91.60336828 426.53600872 C-75.50534927 423.82194556 -59.4085302 421.10083381 -43.3125 418.375 C-45.2263575 418.37280016 -45.2263575 418.37280016 -47.17887878 418.37055588 C-77.47510897 418.3348439 -107.77122371 418.27858834 -138.06736267 418.19707905 C-141.79734946 418.18706175 -145.52733669 418.17721759 -149.25732422 418.16748047 C-149.99988881 418.1655391 -150.74245341 418.16359772 -151.50751996 418.16159752 C-163.52661692 418.13058738 -175.5456948 418.11359963 -187.56482422 418.10180578 C-199.90013264 418.0893891 -212.23534098 418.06187606 -224.5705862 418.02038693 C-232.1804098 417.99526625 -239.79006739 417.98188167 -247.39993304 417.98357043 C-253.23793527 417.98360374 -259.07574406 417.96262003 -264.91367912 417.93383217 C-267.30656429 417.92531379 -269.69948484 417.92359632 -272.09237862 417.92919731 C-275.36110933 417.93582919 -278.62883173 417.91793451 -281.89746094 417.89398193 C-283.31577603 417.90562256 -283.31577603 417.90562256 -284.76274395 417.91749835 C-291.86642226 417.82543387 -297.16751909 416.13096759 -302.5546875 411.41015625 C-303.09351563 410.75917969 -303.63234375 410.10820312 -304.1875 409.4375 C-304.74179687 408.78910156 -305.29609375 408.14070313 -305.8671875 407.47265625 C-308.78983599 403.23086641 -309.56280028 399.54893534 -309.56976891 394.44096661 C-309.57944224 392.6464522 -309.57944224 392.6464522 -309.589311 390.81568497 C-309.5862138 389.50500182 -309.5831166 388.19431867 -309.57992554 386.84391785 C-309.58366239 385.43461991 -309.58826405 384.02532404 -309.59365618 382.61603147 C-309.60589731 378.74341111 -309.60562441 374.87087707 -309.60326743 370.99824178 C-309.60285955 366.82157328 -309.61389572 362.64493256 -309.62338257 358.46827698 C-309.63999966 350.28536263 -309.64549244 342.10247709 -309.64660732 333.91954728 C-309.64755747 327.26831922 -309.65166607 320.61710068 -309.65800858 313.96587563 C-309.67562296 295.11050213 -309.68484714 276.25515141 -309.68334763 257.39976963 C-309.68326772 256.38314594 -309.6831878 255.36652226 -309.68310547 254.3190918 C-309.68302371 253.30122754 -309.68294195 252.28336328 -309.68285771 251.23465464 C-309.68204476 234.73776229 -309.70118406 218.24096123 -309.7293822 201.74409529 C-309.75810405 184.80726599 -309.77192288 167.87048122 -309.77019465 150.93362695 C-309.7695305 141.42405201 -309.77503355 131.91457277 -309.79655075 122.40501976 C-309.81475335 114.30842949 -309.81911748 106.2119783 -309.8055319 98.11537644 C-309.79899756 93.9847347 -309.79890171 89.85435986 -309.8162384 85.72374344 C-309.83195384 81.94047953 -309.82912151 78.15769449 -309.81167014 74.37444238 C-309.80714368 72.3614624 -309.82226957 70.34846767 -309.83814943 68.33554524 C-309.77530732 60.1081369 -308.92335436 54.49553758 -303.34765625 48.1328125 C-302.69667969 47.59398437 -302.04570312 47.05515625 -301.375 46.5 C-300.40240234 45.66855469 -300.40240234 45.66855469 -299.41015625 44.8203125 C-295.46007022 42.09865173 -291.9364087 41.12478496 -287.16822338 41.12890434 C-286.14808342 41.12492225 -285.12794346 41.12094015 -284.07689017 41.11683738 C-282.40617397 41.12557591 -282.40617397 41.12557591 -280.70170593 41.13449097 C-279.51320362 41.13278212 -278.32470132 41.13107327 -277.10018378 41.12931263 C-273.80493536 41.1265882 -270.50992456 41.13283772 -267.21470487 41.14286876 C-263.65988572 41.15150614 -260.10507389 41.14858289 -256.55024719 41.14706421 C-250.39249114 41.14601554 -244.23477748 41.15229025 -238.07703209 41.16353989 C-229.1739736 41.17979437 -220.2709356 41.18500284 -211.36786387 41.18751587 C-196.92320948 41.19189305 -182.47857767 41.20520279 -168.03393555 41.22412109 C-154.00236118 41.24247929 -139.97079294 41.25663609 -125.93920898 41.26513672 C-125.07429388 41.26566217 -124.20937878 41.26618761 -123.31825414 41.26672898 C-118.97922668 41.26933906 -114.64019919 41.27186647 -110.30117166 41.27435279 C-74.30493182 41.29508602 -38.30871767 41.33031219 -2.3125 41.375 C-3.01248217 37.82692316 -3.75261438 34.28836893 -4.5 30.75 C-4.79487305 29.25146484 -4.79487305 29.25146484 -5.09570312 27.72265625 C-6.41351301 21.59990877 -7.76181942 17.74595386 -12.3125 13.375 C-16.26508663 11.08666037 -19.80155339 10.97930293 -24.3125 11.375 C-28.99420268 13.11916374 -31.52499191 15.24535839 -34.3125 19.375 C-35.30905157 22.3646547 -35.35839823 24.14886812 -35.25 27.25 C-35.21650828 31.07922002 -35.30802109 33.99903552 -37.3125 37.375 C-40.98853269 39.82568846 -44.04011034 40.08132248 -48.3125 39.375 C-51.56422872 37.04042554 -52.56938005 35.20757235 -53.3125 31.375 C-54.34651722 20.91617007 -51.81608782 11.38559435 -45.14453125 3.16015625 C-32.37278041 -9.28481205 -14.43763527 -9.66168748 0 0 Z " fill="#A1D6FB" transform="translate(325.3125,22.625)"/>
<path d="M0 0 C12.07164887 9.973305 13.3587148 26.88511702 15.6875 41.375 C16.91791016 41.35405273 18.14832031 41.33310547 19.41601562 41.31152344 C24.0080183 41.23878401 28.59997065 41.19307729 33.19238281 41.15527344 C35.17489199 41.13523503 37.15734263 41.10799647 39.13964844 41.07324219 C41.99949641 41.02438046 44.85855881 41.00195327 47.71875 40.984375 C48.59615845 40.96372986 49.47356689 40.94308472 50.37756348 40.92181396 C57.39478494 40.91929087 62.61786216 42.68505604 67.9296875 47.33984375 C68.46851563 47.99082031 69.00734375 48.64179687 69.5625 49.3125 C70.11679687 49.96089844 70.67109375 50.60929687 71.2421875 51.27734375 C74.16848893 55.52443529 74.93735222 59.20120422 74.93359566 64.31576252 C74.9395688 66.11245222 74.9395688 66.11245222 74.94566262 67.94543868 C74.93983693 69.25768784 74.93401125 70.56993701 74.92800903 71.92195129 C74.92888125 73.33282428 74.93063252 74.74369695 74.93318737 76.1545679 C74.9376618 80.03124929 74.9296559 83.90782028 74.91963124 87.78448761 C74.91100043 91.96507951 74.91391664 96.14566512 74.91543579 100.32626343 C74.91648488 107.56934397 74.91020581 114.81238849 74.89896011 122.05545998 C74.88271127 132.52774169 74.87749774 143.00000598 74.87498413 153.47229894 C74.87060606 170.46258091 74.85729392 187.45284369 74.83837891 204.44311523 C74.82002301 220.94832259 74.80586508 237.45352473 74.79736328 253.95874023 C74.79683783 254.97599211 74.79631239 255.99324398 74.79577102 257.04132167 C74.79316096 262.14453677 74.79063354 267.2477519 74.78814721 272.35096705 C74.76741123 314.69232466 74.73218265 357.03366134 74.6875 399.375 C75.58176461 399.16687119 76.47602921 398.95874237 77.39739275 398.74430662 C79.15570146 398.33648967 79.15570146 398.33648967 80.94953156 397.920434 C82.11192116 397.65043018 83.27431077 397.38042637 84.4719243 397.10224062 C87.83266656 396.34216886 91.19028866 395.69723948 94.59179688 395.14819336 C95.77592163 394.95466782 96.96004639 394.76114227 98.18005371 394.56175232 C100.02452087 394.26628258 100.02452087 394.26628258 101.90625 393.96484375 C103.89468778 393.63946624 105.88312452 393.31408224 107.87149811 392.98831272 C112.00959701 392.31161895 116.14882838 391.64189313 120.28820801 390.9730835 C123.72952735 390.41705505 127.17047924 389.85898834 130.61047363 389.29481506 C133.1749979 388.87458368 135.74032447 388.45921221 138.30651855 388.04930115 C139.46542603 387.85892776 140.6243335 387.66855438 141.81835938 387.47241211 C142.83393921 387.30825302 143.84951904 387.14409393 144.89587402 386.97496033 C147.69065723 386.37432147 150.11197829 385.61416645 152.6875 384.375 C155.47502503 378.79994994 153.27711843 370.79590377 152.26315308 364.89138794 C152.03295682 363.50396591 152.03295682 363.50396591 151.79811013 362.08851516 C151.28418242 359.00081369 150.76098733 355.914757 150.23779297 352.82861328 C149.86586903 350.60592276 149.49451561 348.38313671 149.12368774 346.16026306 C148.11214015 340.10690446 147.09249305 334.05493491 146.07137823 328.00318384 C144.98965298 321.5840938 143.91520206 315.16378607 142.83987427 308.74362183 C141.0199954 297.88300781 139.19494623 287.02327077 137.36669922 276.1640625 C135.51875 265.18776804 133.6739869 254.21094606 131.83349609 243.23339844 C131.72180842 242.56727568 131.61012076 241.90115291 131.49504861 241.21484461 C130.93290996 237.86213086 130.37081213 234.50941027 129.80872869 231.15668726 C126.93412074 214.01056881 124.05699863 196.86488924 121.16326904 179.72198486 C120.94783125 178.44565508 120.73239345 177.1693253 120.51042724 175.85431886 C119.65453507 170.78423678 118.79856382 165.71416812 117.94218969 160.64416742 C115.40928501 145.64588636 112.89741945 130.64441129 110.41980553 115.63689613 C109.28222561 108.74799741 108.13434695 101.86083058 106.98282778 94.97424924 C106.09671771 89.67019438 105.2239365 84.36419024 104.36181355 79.05618668 C103.84267738 75.88092634 103.31033353 72.70799456 102.77388144 69.53561831 C102.53287673 68.09391998 102.29742019 66.65128099 102.06806803 65.20768309 C101.75874137 63.26492607 101.42771272 61.32566103 101.0954895 59.38668823 C100.83019534 57.77650975 100.83019534 57.77650975 100.5595417 56.13380241 C99.53998004 52.90830395 98.30153244 51.48283342 95.6875 49.375 C93.47463676 48.83282866 93.47463676 48.83282866 91.1875 48.875 C88.02804916 48.64115907 86.88433291 48.50786222 84.1875 46.6875 C82.30025803 43.77800196 81.75835769 41.84702675 81.6875 38.375 C83.29161848 34.84593933 84.42909362 33.54727092 87.6875 31.375 C94.96743396 30.34864866 101.55664904 31.23919743 107.6875 35.375 C118.94142783 44.69743059 119.28184954 59.05273191 121.5246582 72.64086914 C121.79482014 74.25530197 122.06541009 75.86966323 122.33638859 77.4839592 C123.07149131 81.870479 123.80065589 86.25796755 124.52882147 90.64564347 C125.3097543 95.34441991 126.09644305 100.04223277 126.88247681 104.74015808 C128.40228984 113.82897864 129.9171862 122.91861146 131.43017149 132.00857085 C134.22868313 148.82099763 137.03592928 165.63196896 139.8419432 182.44314492 C140.72576035 187.73837546 141.60930447 193.0336513 142.49228477 198.32902145 C146.89764796 224.7483811 151.33187417 251.162505 155.82388496 277.56727409 C156.620008 282.24763048 157.41436194 286.92828585 158.20823669 291.60902405 C158.46402478 293.11694438 158.71981327 294.62486465 158.97560215 296.13278484 C159.35049627 298.34291646 159.72536877 300.55305174 160.10016239 302.7632004 C161.52757021 311.17970196 162.96124537 319.5950792 164.40528107 328.0087443 C165.39908516 333.80273301 166.38203885 339.59852885 167.36100388 345.39504433 C167.75574685 347.72103738 168.15418511 350.04640713 168.55678177 352.3710537 C174.19709464 384.95999306 174.19709464 384.95999306 167.6875 394.375 C160.531134 402.81753316 150.77128502 404.40315459 140.27864075 406.10868835 C139.38565755 406.25922112 138.49267435 406.40975388 137.57263106 406.56484824 C134.60645663 407.06327089 131.6388445 407.55250944 128.67114258 408.04174805 C126.52817638 408.39990543 124.38530575 408.75863496 122.24252319 409.1178894 C116.41349173 410.09352316 110.58316184 411.06118716 104.75258088 412.02751136 C98.54622899 413.05759018 92.34114033 414.09522437 86.13591003 415.1320343 C75.62571185 416.88713713 65.1147884 418.63782702 54.60327148 420.38500977 C37.5705198 423.21615034 20.53917036 426.05567205 3.50806212 428.89668298 C-0.35026059 429.54030108 -4.20859015 430.1838781 -8.06692505 430.8274231 C-9.33587935 431.03908021 -10.60483364 431.25073733 -11.9122411 431.46880829 C-19.5734086 432.74639497 -27.23490563 434.02198457 -34.89667475 435.29595816 C-59.36748085 439.36493831 -83.83512228 443.44975545 -108.28798568 447.62538898 C-111.68739641 448.20561049 -115.08699649 448.78470821 -118.4866724 449.36337376 C-119.58063562 449.5496055 -120.67459884 449.73583725 -121.80171245 449.92771238 C-123.96862038 450.29659398 -126.13553448 450.66543936 -128.30245501 451.03424698 C-134.48351782 452.08713681 -140.66309645 453.14824797 -146.84164286 454.21579981 C-150.59919535 454.86322403 -154.35797387 455.50329404 -158.11711478 456.14142394 C-159.83266673 456.43429868 -161.54768413 456.73032655 -163.26208138 457.02988648 C-189.26061102 461.56926709 -189.26061102 461.56926709 -198.3125 455.375 C-202.90708761 451.20026264 -207.34887273 446.70740778 -208.3125 440.375 C-208.17899869 436.50346196 -207.84269221 434.17028831 -205.6875 430.9375 C-202.31012021 428.71553961 -200.27726406 428.74898462 -196.3125 429.375 C-192.29739942 432.47757772 -190.46803064 435.8586501 -188.3125 440.375 C-181.34771579 443.8573921 -168.34018905 439.51017854 -160.92480469 438.24194336 C-159.64533463 438.02721878 -158.36586456 437.8124942 -157.04762268 437.59126282 C-153.57867939 437.00898051 -150.11078474 436.42066536 -146.64306164 435.83116603 C-143.00420092 435.2136629 -139.36438428 434.60184567 -135.72467041 433.98939514 C-128.85015618 432.83175562 -121.97650221 431.66908985 -115.10315156 430.50456387 C-107.27055444 429.17777218 -99.43700173 427.8566657 -91.60336828 426.53600872 C-75.50534927 423.82194556 -59.4085302 421.10083381 -43.3125 418.375 C-45.2263575 418.37280016 -45.2263575 418.37280016 -47.17887878 418.37055588 C-77.47510897 418.3348439 -107.77122371 418.27858834 -138.06736267 418.19707905 C-141.79734946 418.18706175 -145.52733669 418.17721759 -149.25732422 418.16748047 C-149.99988881 418.1655391 -150.74245341 418.16359772 -151.50751996 418.16159752 C-163.52661692 418.13058738 -175.5456948 418.11359963 -187.56482422 418.10180578 C-199.90013264 418.0893891 -212.23534098 418.06187606 -224.5705862 418.02038693 C-232.1804098 417.99526625 -239.79006739 417.98188167 -247.39993304 417.98357043 C-253.23793527 417.98360374 -259.07574406 417.96262003 -264.91367912 417.93383217 C-267.30656429 417.92531379 -269.69948484 417.92359632 -272.09237862 417.92919731 C-275.36110933 417.93582919 -278.62883173 417.91793451 -281.89746094 417.89398193 C-283.31577603 417.90562256 -283.31577603 417.90562256 -284.76274395 417.91749835 C-291.86642226 417.82543387 -297.16751909 416.13096759 -302.5546875 411.41015625 C-303.09351563 410.75917969 -303.63234375 410.10820312 -304.1875 409.4375 C-304.74179687 408.78910156 -305.29609375 408.14070313 -305.8671875 407.47265625 C-308.78983599 403.23086641 -309.56280028 399.54893534 -309.56976891 394.44096661 C-309.57944224 392.6464522 -309.57944224 392.6464522 -309.589311 390.81568497 C-309.5862138 389.50500182 -309.5831166 388.19431867 -309.57992554 386.84391785 C-309.58366239 385.43461991 -309.58826405 384.02532404 -309.59365618 382.61603147 C-309.60589731 378.74341111 -309.60562441 374.87087707 -309.60326743 370.99824178 C-309.60285955 366.82157328 -309.61389572 362.64493256 -309.62338257 358.46827698 C-309.63999966 350.28536263 -309.64549244 342.10247709 -309.64660732 333.91954728 C-309.64755747 327.26831922 -309.65166607 320.61710068 -309.65800858 313.96587563 C-309.67562296 295.11050213 -309.68484714 276.25515141 -309.68334763 257.39976963 C-309.68326772 256.38314594 -309.6831878 255.36652226 -309.68310547 254.3190918 C-309.68302371 253.30122754 -309.68294195 252.28336328 -309.68285771 251.23465464 C-309.68204476 234.73776229 -309.70118406 218.24096123 -309.7293822 201.74409529 C-309.75810405 184.80726599 -309.77192288 167.87048122 -309.77019465 150.93362695 C-309.7695305 141.42405201 -309.77503355 131.91457277 -309.79655075 122.40501976 C-309.81475335 114.30842949 -309.81911748 106.2119783 -309.8055319 98.11537644 C-309.79899756 93.9847347 -309.79890171 89.85435986 -309.8162384 85.72374344 C-309.83195384 81.94047953 -309.82912151 78.15769449 -309.81167014 74.37444238 C-309.80714368 72.3614624 -309.82226957 70.34846767 -309.83814943 68.33554524 C-309.77530732 60.1081369 -308.92335436 54.49553758 -303.34765625 48.1328125 C-302.69667969 47.59398437 -302.04570312 47.05515625 -301.375 46.5 C-300.40240234 45.66855469 -300.40240234 45.66855469 -299.41015625 44.8203125 C-295.46007022 42.09865173 -291.9364087 41.12478496 -287.16822338 41.12890434 C-286.14808342 41.12492225 -285.12794346 41.12094015 -284.07689017 41.11683738 C-282.40617397 41.12557591 -282.40617397 41.12557591 -280.70170593 41.13449097 C-279.51320362 41.13278212 -278.32470132 41.13107327 -277.10018378 41.12931263 C-273.80493536 41.1265882 -270.50992456 41.13283772 -267.21470487 41.14286876 C-263.65988572 41.15150614 -260.10507389 41.14858289 -256.55024719 41.14706421 C-250.39249114 41.14601554 -244.23477748 41.15229025 -238.07703209 41.16353989 C-229.1739736 41.17979437 -220.2709356 41.18500284 -211.36786387 41.18751587 C-196.92320948 41.19189305 -182.47857767 41.20520279 -168.03393555 41.22412109 C-154.00236118 41.24247929 -139.97079294 41.25663609 -125.93920898 41.26513672 C-125.07429388 41.26566217 -124.20937878 41.26618761 -123.31825414 41.26672898 C-118.97922668 41.26933906 -114.64019919 41.27186647 -110.30117166 41.27435279 C-74.30493182 41.29508602 -38.30871767 41.33031219 -2.3125 41.375 C-3.01248217 37.82692316 -3.75261438 34.28836893 -4.5 30.75 C-4.79487305 29.25146484 -4.79487305 29.25146484 -5.09570312 27.72265625 C-6.41351301 21.59990877 -7.76181942 17.74595386 -12.3125 13.375 C-16.26508663 11.08666037 -19.80155339 10.97930293 -24.3125 11.375 C-28.99420268 13.11916374 -31.52499191 15.24535839 -34.3125 19.375 C-35.30905157 22.3646547 -35.35839823 24.14886812 -35.25 27.25 C-35.21650828 31.07922002 -35.30802109 33.99903552 -37.3125 37.375 C-40.98853269 39.82568846 -44.04011034 40.08132248 -48.3125 39.375 C-51.56422872 37.04042554 -52.56938005 35.20757235 -53.3125 31.375 C-54.34651722 20.91617007 -51.81608782 11.38559435 -45.14453125 3.16015625 C-32.37278041 -9.28481205 -14.43763527 -9.66168748 0 0 Z M-291.50170612 59.08697987 C-294.42608885 64.39704271 -293.99238282 69.62130687 -293.93395996 75.58459473 C-293.93828917 76.95891339 -293.94480535 78.33322662 -293.95332003 79.70752573 C-293.97032954 83.48353223 -293.95611838 87.2588767 -293.93680525 91.03484845 C-293.92139316 95.10717678 -293.93477624 99.17942319 -293.94454956 103.25175476 C-293.95908649 111.22921123 -293.94683172 119.20641347 -293.92543632 127.18384588 C-293.90144172 136.47081544 -293.90313974 145.75772656 -293.90574223 155.04472023 C-293.90943366 171.61336244 -293.88859601 188.18188475 -293.85449219 204.75048828 C-293.82140003 220.83352692 -293.80723375 236.91643972 -293.81347656 252.99951172 C-293.82023858 270.5063397 -293.8177857 288.01311494 -293.79811716 305.51993513 C-293.79707768 306.44545269 -293.79603819 307.37097025 -293.7949672 308.32453379 C-293.79287628 310.1834676 -293.79076531 312.04240139 -293.78863403 313.90133515 C-293.78173457 320.37720578 -293.78106977 326.85306018 -293.78251648 333.32893372 C-293.78395529 341.21920127 -293.77428175 349.10936611 -293.75057012 356.99959958 C-293.73869931 361.02652581 -293.73159213 365.05330878 -293.73740768 369.08025169 C-293.74257221 372.76524088 -293.73391741 376.44992718 -293.71413308 380.13486451 C-293.70713362 382.10231838 -293.71485034 384.06980751 -293.72305441 386.03725672 C-293.71399777 387.20409919 -293.70494113 388.37094167 -293.69561005 389.57314301 C-293.69403884 390.580109 -293.69246764 391.587075 -293.69084883 392.62455511 C-293.2460825 395.85782867 -292.22279151 397.75021947 -290.3125 400.375 C-287.67432574 401.69408713 -285.71085629 401.50285877 -282.75484753 401.50642776 C-281.56611103 401.51026891 -280.37737454 401.51411005 -279.15261573 401.5180676 C-277.1762501 401.51676787 -277.1762501 401.51676787 -275.15995789 401.51544189 C-273.75523748 401.51802411 -272.35051781 401.52103687 -270.94579917 401.5244453 C-267.07203059 401.53253542 -263.19828052 401.53430598 -259.32450449 401.53504276 C-255.15193915 401.53688983 -250.9793835 401.54443541 -246.80682373 401.55117798 C-237.67673366 401.56477612 -228.54664796 401.57078833 -219.41654944 401.57518864 C-213.71882328 401.57794857 -208.02109881 401.58218546 -202.32337379 401.58669281 C-186.5571373 401.59888743 -170.79090217 401.60918635 -155.02466106 401.6125679 C-153.51021999 401.61289725 -153.51021999 401.61289725 -151.96518414 401.61323325 C-150.44705849 401.61356067 -150.44705849 401.61356067 -148.89826363 401.6138947 C-146.8472962 401.61433817 -144.79632876 401.61478474 -142.74536133 401.61523438 C-141.72800425 401.6154558 -140.71064716 401.61567723 -139.66246108 401.61590537 C-123.17306992 401.61985442 -106.68372293 401.63731082 -90.19434883 401.6605939 C-73.27684396 401.68428926 -56.35936126 401.69676892 -39.44183952 401.69793582 C-29.93847838 401.69885361 -20.43517477 401.7046319 -10.93182945 401.72275543 C-2.8402257 401.73813196 5.25130274 401.7432914 13.34291831 401.73501733 C17.47312686 401.7311021 21.60318363 401.73208273 25.73337364 401.74607468 C29.51282494 401.75876158 33.29200961 401.75766231 37.07146027 401.74548396 C39.08977923 401.74258493 41.10810258 401.75450211 43.12638551 401.76690602 C44.32294525 401.76031618 45.51950498 401.75372633 46.7523241 401.7469368 C48.30166558 401.74783243 48.30166558 401.74783243 49.88230687 401.74874616 C53.17449865 401.31011539 55.05203398 400.37636055 57.6875 398.375 C58.7281322 395.2531034 58.81487894 393.09146034 58.81892776 389.81644535 C58.82276891 388.65296827 58.82661005 387.4894912 58.8305676 386.29075724 C58.82926787 384.36442907 58.82926787 384.36442907 58.82794189 382.39918518 C58.83052495 381.02588741 58.83353794 379.6525904 58.8369453 378.27929443 C58.84502531 374.49706708 58.84680542 370.7148587 58.84754276 366.93262374 C58.84939153 362.85689208 58.85693789 358.7811703 58.86367798 354.70544434 C58.87726804 345.79034983 58.88328682 336.87525982 58.88768864 327.96015668 C58.89044942 322.39660817 58.89468643 316.83306141 58.89919281 311.26951408 C58.91138541 295.87382014 58.92168536 280.4781276 58.9250679 265.08242893 C58.92528747 264.096826 58.92550703 263.11122306 58.92573325 262.09575337 C58.92595153 261.10776183 58.92616981 260.11977028 58.9263947 259.1018396 C58.92683817 257.09971273 58.92728473 255.09758586 58.92773438 253.09545898 C58.9279558 252.10233001 58.92817723 251.10920104 58.92840537 250.08597725 C58.93235569 233.98396521 58.94981684 217.88199836 58.9730939 201.78000379 C58.99678435 185.2591064 59.00926867 168.73823171 59.01043582 152.21731704 C59.01135378 142.93700858 59.01713661 133.65675903 59.03525543 124.37646675 C59.0506252 116.47626464 59.05579535 108.57613965 59.04751733 100.67592544 C59.04359995 96.64304528 59.04459317 92.61032056 59.05857468 88.57745934 C59.07124855 84.88815194 59.070174 81.19911782 59.05798396 77.50981116 C59.0550806 75.53752537 59.06701181 73.56523515 59.07940602 71.59298617 C59.06952126 69.84385893 59.06952126 69.84385893 59.0594368 68.05939579 C59.06003389 67.05096593 59.06063097 66.04253607 59.06124616 65.00354773 C58.62479232 61.93397841 57.83856758 60.5816085 55.6875 58.375 C52.05516898 57.16422299 48.73628013 57.25055836 44.95703125 57.27734375 C43.83140022 57.27946617 43.83140022 57.27946617 42.68302917 57.28163147 C40.2886454 57.2872244 37.89435547 57.29977556 35.5 57.3125 C33.87565239 57.31751592 32.25130332 57.32207866 30.62695312 57.32617188 C26.64709931 57.33719152 22.66731556 57.35445127 18.6875 57.375 C19.27675628 62.61038486 20.11211716 67.63201713 21.31640625 72.76953125 C21.63263199 74.15158513 21.94837201 75.53375022 22.26367188 76.91601562 C22.75444568 79.04954899 23.24871499 81.18205667 23.75170898 83.31274414 C29.06683397 105.91967269 29.06683397 105.91967269 23.38671875 116.140625 C19.88683317 120.74277339 15.11696075 123.56517975 9.6875 125.375 C1.96973937 126.01902654 -4.95002939 126.20744792 -11.3125 121.375 C-19.53634927 113.71186773 -20.93796671 102.13166364 -22.89306641 91.54345703 C-23.35516252 89.15443625 -23.86587507 86.7792351 -24.38671875 84.40234375 C-24.57105469 83.55736328 -24.75539063 82.71238281 -24.9453125 81.84179688 C-25.30702503 80.1924387 -25.67272231 78.54394785 -26.04296875 76.89648438 C-28.26620799 66.64005648 -28.26620799 66.64005648 -26.3125 62 C-23.62062291 59.81284986 -21.63425925 59.89502666 -18.25 59.84375 C-15.38890132 60.6282448 -14.8420802 61.82818922 -13.3125 64.375 C-12.55241989 67.2213266 -11.92216203 69.98096651 -11.375 72.8671875 C-11.12568726 74.10252731 -11.12568726 74.10252731 -10.87133789 75.36282349 C-10.34176504 77.99001101 -9.82577551 80.6195834 -9.3125 83.25 C-8.79857853 85.87312076 -8.28144814 88.4953848 -7.75366211 91.11575317 C-7.42590284 92.74356727 -7.10598138 94.37298571 -6.79516602 96.00411987 C-5.69983382 101.45266339 -4.35488701 106.33261299 -0.3125 110.375 C5.36288968 111.05412973 5.36288968 111.05412973 10.25 108.5625 C14.47832641 99.18664578 8.786167 84.8696394 6.625 75.1875 C6.24352415 73.45521377 5.86265986 71.72279274 5.48242188 69.99023438 C4.55782336 65.78356931 3.62497249 61.57881393 2.6875 57.375 C-34.29903319 57.26060258 -71.28553976 57.17247553 -108.27221401 57.11967335 C-112.63696132 57.11341968 -117.00170828 57.10694808 -121.36645508 57.1003418 C-122.23541242 57.09903024 -123.10436977 57.09771869 -123.99965916 57.0963674 C-138.07719682 57.07459968 -152.15463258 57.03517066 -166.23210975 56.98923602 C-180.672556 56.94250934 -195.11294882 56.91471264 -209.55346757 56.90455753 C-218.46700091 56.89769048 -227.38024625 56.87598724 -236.29369096 56.83541767 C-242.40262689 56.80902602 -248.51141353 56.80099085 -254.62040236 56.80749311 C-258.1472085 56.81070166 -261.67351077 56.80571906 -265.20022774 56.77897263 C-269.02158694 56.75020283 -272.84228618 56.76003806 -276.66374207 56.77372742 C-278.34029469 56.75188111 -278.34029469 56.75188111 -280.05071706 56.72959346 C-284.52980548 56.7731548 -287.51894806 56.94901783 -291.50170612 59.08697987 Z " fill="#1B245A" transform="translate(325.3125,22.625)"/>
</svg>
